<?xml version="1.0" encoding="UTF-8"?><svg xmlns="http://www.w3.org/2000/svg" xmlns:xlink="http://www.w3.org/1999/xlink" contentScriptType="text/ecmascript" width="75pt" zoomAndPan="magnify" contentStyleType="text/css" viewBox="0 0 75 74.999997" height="74.999997pt" preserveAspectRatio="xMidYMid meet" version="1.2"><defs><g/></defs><g xml:id="surface1" id="surface1"><path style=" stroke:none;fill-rule:nonzero;fill:rgb(13.328552%,14.118958%,21.179199%);fill-opacity:1;" d="M 37.5 0 C 36.273438 0 35.046875 0.0585938 33.824219 0.179688 C 32.601562 0.300781 31.390625 0.480469 30.183594 0.71875 C 28.980469 0.960938 27.789062 1.257812 26.613281 1.613281 C 25.4375 1.972656 24.285156 2.382812 23.148438 2.855469 C 22.015625 3.324219 20.90625 3.847656 19.824219 4.429688 C 18.738281 5.007812 17.6875 5.636719 16.667969 6.320312 C 15.644531 7.003906 14.660156 7.734375 13.710938 8.511719 C 12.761719 9.292969 11.851562 10.113281 10.984375 10.984375 C 10.113281 11.851562 9.292969 12.761719 8.511719 13.710938 C 7.734375 14.660156 7.003906 15.644531 6.320312 16.667969 C 5.636719 17.6875 5.007812 18.738281 4.429688 19.824219 C 3.847656 20.90625 3.324219 22.015625 2.855469 23.148438 C 2.382812 24.285156 1.972656 25.4375 1.613281 26.613281 C 1.257812 27.789062 0.960938 28.980469 0.71875 30.183594 C 0.480469 31.390625 0.300781 32.601562 0.179688 33.824219 C 0.0585938 35.046875 0 36.273438 0 37.5 C 0 38.726562 0.0585938 39.953125 0.179688 41.175781 C 0.300781 42.398438 0.480469 43.609375 0.71875 44.816406 C 0.960938 46.019531 1.257812 47.210938 1.613281 48.386719 C 1.972656 49.5625 2.382812 50.714844 2.855469 51.851562 C 3.324219 52.984375 3.847656 54.09375 4.429688 55.175781 C 5.007812 56.261719 5.636719 57.3125 6.320312 58.332031 C 7.003906 59.355469 7.734375 60.339844 8.511719 61.289062 C 9.292969 62.238281 10.113281 63.148438 10.984375 64.015625 C 11.851562 64.886719 12.761719 65.707031 13.710938 66.488281 C 14.660156 67.265625 15.644531 67.996094 16.667969 68.679688 C 17.6875 69.363281 18.738281 69.992188 19.824219 70.570312 C 20.90625 71.152344 22.015625 71.675781 23.148438 72.144531 C 24.285156 72.617188 25.4375 73.027344 26.613281 73.386719 C 27.789062 73.742188 28.980469 74.039062 30.183594 74.28125 C 31.390625 74.519531 32.601562 74.699219 33.824219 74.820312 C 35.046875 74.941406 36.273438 75 37.5 75 C 38.726562 75 39.953125 74.941406 41.175781 74.820312 C 42.398438 74.699219 43.609375 74.519531 44.816406 74.28125 C 46.019531 74.039062 47.210938 73.742188 48.386719 73.386719 C 49.5625 73.027344 50.714844 72.617188 51.851562 72.144531 C 52.984375 71.675781 54.09375 71.152344 55.175781 70.570312 C 56.261719 69.992188 57.3125 69.363281 58.332031 68.679688 C 59.355469 67.996094 60.339844 67.265625 61.289062 66.488281 C 62.238281 65.707031 63.148438 64.886719 64.015625 64.015625 C 64.886719 63.148438 65.707031 62.238281 66.488281 61.289062 C 67.265625 60.339844 67.996094 59.355469 68.679688 58.332031 C 69.363281 57.3125 69.992188 56.261719 70.570312 55.175781 C 71.152344 54.09375 71.675781 52.984375 72.144531 51.851562 C 72.617188 50.714844 73.027344 49.5625 73.386719 48.386719 C 73.742188 47.210938 74.039062 46.019531 74.28125 44.816406 C 74.519531 43.609375 74.699219 42.398438 74.820312 41.175781 C 74.941406 39.953125 75 38.726562 75 37.5 C 75 36.273438 74.941406 35.046875 74.820312 33.824219 C 74.699219 32.601562 74.519531 31.390625 74.28125 30.183594 C 74.039062 28.980469 73.742188 27.789062 73.386719 26.613281 C 73.027344 25.4375 72.617188 24.285156 72.144531 23.148438 C 71.675781 22.015625 71.152344 20.90625 70.570312 19.824219 C 69.992188 18.738281 69.363281 17.6875 68.679688 16.667969 C 67.996094 15.644531 67.265625 14.660156 66.488281 13.710938 C 65.707031 12.761719 64.886719 11.851562 64.015625 10.984375 C 63.148438 10.113281 62.238281 9.292969 61.289062 8.511719 C 60.339844 7.734375 59.355469 7.003906 58.332031 6.320312 C 57.3125 5.636719 56.261719 5.007812 55.175781 4.429688 C 54.09375 3.847656 52.984375 3.324219 51.851562 2.855469 C 50.714844 2.382812 49.5625 1.972656 48.386719 1.613281 C 47.210938 1.257812 46.019531 0.960938 44.816406 0.71875 C 43.609375 0.480469 42.398438 0.300781 41.175781 0.179688 C 39.953125 0.0585938 38.726562 0 37.5 0 Z M 37.5 0 "/><g style="fill:rgb(50.979614%,66.668701%,100%);fill-opacity:1;"><g transform="translate(6.240279, 46.313409)"><path style="stroke:none;" d="M 13.265625 -3.015625 L 1.296875 -8.265625 L 1.296875 -9.5 L 13.265625 -15.46875 L 13.265625 -13.609375 L 3.53125 -8.984375 L 13.265625 -4.890625 Z M 13.265625 -3.015625 "/></g></g><g style="fill:rgb(50.979614%,66.668701%,100%);fill-opacity:1;"><g transform="translate(20.827306, 46.313409)"><path style="stroke:none;" d="M 16.328125 0 L 14.21875 0 L 14.21875 -8.578125 L 4.625 -8.578125 L 4.625 0 L 2.5 0 L 2.5 -18.21875 L 4.625 -18.21875 L 4.625 -10.46875 L 14.21875 -10.46875 L 14.21875 -18.21875 L 16.328125 -18.21875 Z M 16.328125 0 "/></g></g><g style="fill:rgb(50.979614%,66.668701%,100%);fill-opacity:1;"><g transform="translate(39.649677, 46.313409)"><path style="stroke:none;" d="M 2.5 0 L 2.5 -18.21875 L 4.625 -18.21875 L 4.625 -1.921875 L 12.65625 -1.921875 L 12.65625 0 Z M 2.5 0 "/></g></g><g style="fill:rgb(50.979614%,66.668701%,100%);fill-opacity:1;"><g transform="translate(52.89136, 46.313409)"><path style="stroke:none;" d="M 1.296875 -4.890625 L 11.046875 -8.953125 L 1.296875 -13.609375 L 1.296875 -15.46875 L 13.265625 -9.5 L 13.265625 -8.265625 L 1.296875 -3.015625 Z M 1.296875 -4.890625 "/></g></g></g></svg>